<?xml version="1.0" encoding="UTF-8"?>
<svg version="1.1" viewBox="0 0 2048 288" width="1667" height="235" xmlns="http://www.w3.org/2000/svg">
<path transform="translate(321,54)" d="m0 0h82l16 2 15 5 11 7 5 4 8 10 6 12 3 13v24l-3 12-8 15-10 10-10 6-4 1 8 16 13 24 16 29 5 9v2h-41l-30-56-9-16-37-1 1 41v15l-1 17h-36l-1-1v-199zm37 31-1 2v51l1 13h45l12-4 8-6 5-8 2-10v-9l-3-12-6-8-9-6-7-2-8-1z" fill="#030303"/>
<path transform="translate(1658,54)" d="m0 0h83l15 2 13 4 11 6 11 10 7 11 5 13 2 14v10l-2 13-4 11-6 10-7 8-14 9-2 1 2 5 15 28 13 23 11 21v2h-40l-5-8-30-56-4-7v-2h-37v73h-37zm37 31v67l45-1 10-3 8-5 6-7 3-9v-16l-4-11-7-8-10-5-11-2z"/>
<path transform="translate(1891,52)" d="m0 0h29l14 3 13 5 12 7 13 11 9 12 7 15 2 8v6h-37l-8-16-6-7-9-6-9-3-5-1h-20l-13 4-11 7-8 9-8 16-4 16-1 11v13l2 15 4 14 7 13 7 8 9 6 9 4 8 2h20l11-3 10-5 8-7 6-10 3-10 2-10h-47v-29h80v47l-4 14-8 14-9 11-13 10-15 7-16 4-8 1h-22l-17-3-13-5-11-6-11-9-10-11-8-13-6-14-4-16-2-16v-19l3-22 6-18 9-17 9-11 11-10 14-8 12-5z" fill="#010101"/>
<path transform="translate(864,54)" d="m0 0h38v85h92v-85h37v201h-37v-85h-92v85h-38z" fill="#020202"/>
<path transform="translate(538,54)" d="m0 0h36l1 92 7-6 9-11 9-10 9-11 12-14 11-13 12-14 9-11 2-2h45l-6 8-13 15-9 10-9 11-10 11-9 11-9 10-9 11-3 4 36 51 13 18 14 20 12 17 2 4h-44l-9-12-13-19-14-20-16-23-7-10-5 4-9 11-8 10-1 59h-36z"/>
<path transform="translate(1109,54)" d="m0 0h45l4 10 26 74 16 45 23 65 2 7h-39l-4-9-13-39h-75l-15 45-2 3h-38l1-7 21-60 15-42 21-60 11-31zm22 42-4 10-15 45-8 23v3h55l-3-12-21-62-3-7z" fill="#010101"/>
<path transform="translate(1535,54)" d="m0 0h45l5 12 16 46 17 48 19 54 14 39v2h-39l-5-12-12-36h-75l-16 48h-40l9-27 15-42 21-60 17-48 8-23zm22 42-4 10-22 66-1 5h55l-2-9-22-65-3-7z" fill="#010101"/>
<path transform="translate(198,54)" d="m0 0h45l7 19 19 54 17 48 19 54 8 22v4h-39l-12-36-4-11v-2l-75 1-16 47-1 1h-39l3-10 16-46 17-48 14-40 19-54zm21 42-25 75-1 6h54l1-2-16-47-10-30-1-2z" fill="#010101"/>
<path transform="translate(762,52)" d="m0 0h30l16 4 16 8 10 8 7 9 6 12 2 9v8h-35l-3-9-5-8-10-6-10-3h-20l-13 4-9 8-3 7v12l3 6 7 6 13 6 35 9 17 6 14 8 11 10 7 11 4 15v14l-4 16-6 10-8 9-14 9-13 5-17 3h-30l-20-4-16-8-8-6-7-7-6-10-4-11-2-10v-6h36l2 7 5 10 8 7 9 4 10 2h17l12-3 10-6 6-7 2-6v-10l-4-8-6-5-10-5-21-6-29-8-17-8-9-7-8-8-5-10-2-6-1-7v-11l3-13 7-13 8-9 10-7 12-6 13-4z" fill="#010101"/>
<path transform="translate(1433,51)" d="m0 0h5l3 3 1 3v167l-1 7-4 5-11 9-13 11-7 1-4-5-1-124-2-2-6 1-19 14-7 5h-6l-3-3v-39l7-6 23-16 16-11 20-14z" fill="#598DDF"/>
<path transform="translate(1259,51)" d="m0 0 6 1 18 13 20 14 17 12 15 11 2 2v39l-4 3-7-1-15-12-11-7-5 2-1 2-1 123-4 4-6-1-14-12-11-9-4-8v-169l2-5z" fill="#F07405"/>
<path transform="translate(70,50)" d="m0 0 6 1 2 2 1 5-1 197-4 3-6-1-20-15-11-8-3-6v-155l10-7z" fill="#F07303"/>
<path transform="translate(481,54)" d="m0 0h37v201h-37z"/>
<path transform="translate(100,27)" d="m0 0 5 1 27 11 5 5 2 3v79l-3 3-32 11h-5l-4-5v-103z" fill="#598DDF"/>
</svg>
