<svg width="2820" height="260" viewBox="0 0 2820 260" fill="none" xmlns="http://www.w3.org/2000/svg">
<path d="M0 69.6772C0 67.6744 1.19511 65.8649 3.03711 65.0786L57.1705 41.9721C60.469 40.5641 64.1334 42.9842 64.1334 46.5707V249.831C64.1334 253.567 60.1854 255.983 56.8585 254.283L5.45024 228.018C2.10514 226.309 0 222.869 0 219.113V69.6772Z" fill="#F47200"/>
<path d="M150.981 116.308C150.981 118.62 149.396 120.63 147.148 121.17L95.6864 133.52C92.5422 134.275 89.5195 131.891 89.5195 128.658V23.6385C89.5195 20.3136 92.7044 17.9149 95.9 18.8329L143.742 32.5758C148.028 33.8071 150.981 37.7276 150.981 42.1871V116.308Z" fill="#578EE0"/>
<path d="M2208.83 27.5454H2254.95L2310.1 127.283H2312.31L2367.46 27.5454H2413.58L2331.57 168.895V253H2290.84V168.895L2208.83 27.5454ZM2426.75 253H2383.16L2462.53 27.5454H2512.95L2592.43 253H2548.84L2488.62 73.7812H2486.86L2426.75 253ZM2428.18 164.602H2547.08V197.407H2428.18V164.602ZM2785.7 27.5454V253H2749.37L2643.14 99.4311H2641.27V253H2600.43V27.5454H2636.98L2743.1 181.224H2745.08V27.5454H2785.7Z" fill="black"/>
<path d="M173.237 252V26.5454H257.783C275.103 26.5454 289.634 29.5544 301.376 35.5724C313.192 41.5904 322.109 50.0303 328.127 60.892C334.219 71.6804 337.264 84.2668 337.264 98.6513C337.264 113.109 334.182 125.659 328.017 136.3C321.926 146.869 312.935 155.052 301.046 160.849C289.157 166.574 274.552 169.436 257.232 169.436H197.016V135.53H251.728C261.856 135.53 270.149 134.135 276.607 131.347C283.066 128.484 287.836 124.338 290.918 118.907C294.074 113.403 295.652 106.651 295.652 98.6513C295.652 90.6517 294.074 83.8265 290.918 78.1754C287.763 72.451 282.955 68.121 276.497 65.1854C270.039 62.1764 261.709 60.6719 251.508 60.6719H214.079V252H173.237ZM289.707 149.841L345.521 252H299.945L245.123 149.841H289.707ZM382.111 252H338.517L417.888 26.5454H468.307L547.789 252H504.195L443.979 72.7812H442.217L382.111 252ZM383.542 163.602H502.434V196.407H383.542V163.602ZM518.631 60.782V26.5454H698.51V60.782H628.826V252H588.315V60.782H518.631ZM752.328 26.5454V252H711.487V26.5454H752.328ZM759.443 26.5454H805.569L860.722 126.283H862.923L918.076 26.5454H964.202L882.188 167.895V252H841.457V167.895L759.443 26.5454ZM1160.17 139.273C1160.17 163.565 1155.62 184.371 1146.52 201.691C1137.49 218.938 1125.16 232.148 1109.53 241.322C1093.97 250.496 1076.32 255.082 1056.58 255.082C1036.84 255.082 1019.15 250.496 1003.52 241.322C987.958 232.075 975.628 218.828 966.528 201.581C957.501 184.261 952.987 163.491 952.987 139.273C952.987 114.981 957.501 94.2112 966.528 76.9645C975.628 59.6444 987.958 46.3975 1003.52 37.2237C1019.15 28.0499 1036.84 23.4631 1056.58 23.4631C1076.32 23.4631 1093.97 28.0499 1109.53 37.2237C1125.16 46.3975 1137.49 59.6444 1146.52 76.9645C1155.62 94.2112 1160.17 114.981 1160.17 139.273ZM1119.11 139.273C1119.11 122.173 1116.43 107.752 1111.07 96.0092C1105.79 84.1934 1098.45 75.2765 1089.05 69.2585C1079.66 63.1671 1068.83 60.1215 1056.58 60.1215C1044.32 60.1215 1033.5 63.1671 1024.1 69.2585C1014.71 75.2765 1007.33 84.1934 1001.98 96.0092C996.691 107.752 994.049 122.173 994.049 139.273C994.049 156.373 996.691 170.83 1001.98 182.646C1007.33 194.389 1014.71 203.306 1024.1 209.397C1033.5 215.415 1044.32 218.424 1056.58 218.424C1068.83 218.424 1079.66 215.415 1089.05 209.397C1098.45 203.306 1105.79 194.389 1111.07 182.646C1116.43 170.83 1119.11 156.373 1119.11 139.273ZM1328.12 98.5412C1326.28 92.5966 1323.75 87.2758 1320.52 82.5788C1317.37 77.8085 1313.55 73.7353 1309.07 70.3594C1304.67 66.9834 1299.61 64.4515 1293.88 62.7635C1288.16 61.0021 1281.92 60.1215 1275.17 60.1215C1263.06 60.1215 1252.27 63.1671 1242.8 69.2585C1233.33 75.3499 1225.88 84.3035 1220.45 96.1193C1215.1 107.862 1212.42 122.173 1212.42 139.053C1212.42 156.079 1215.1 170.5 1220.45 182.316C1225.81 194.132 1233.26 203.122 1242.8 209.287C1252.34 215.378 1263.42 218.424 1276.05 218.424C1287.5 218.424 1297.4 216.222 1305.77 211.819C1314.21 207.415 1320.7 201.177 1325.25 193.104C1329.81 184.958 1332.08 175.417 1332.08 164.482L1341.33 165.913H1280.12V133.989H1371.6V161.07C1371.6 180.371 1367.49 197.067 1359.27 211.158C1351.05 225.249 1339.75 236.111 1325.36 243.744C1310.98 251.303 1294.47 255.082 1275.83 255.082C1255.06 255.082 1236.82 250.422 1221.11 241.102C1205.48 231.708 1193.26 218.387 1184.46 201.141C1175.72 183.821 1171.36 163.271 1171.36 139.493C1171.36 121.292 1173.92 105.036 1179.06 90.7251C1184.27 76.4141 1191.54 64.268 1200.86 54.2869C1210.18 44.2325 1221.11 36.5999 1233.66 31.3892C1246.21 26.1051 1259.86 23.4631 1274.62 23.4631C1287.09 23.4631 1298.72 25.2978 1309.51 28.9673C1320.3 32.5634 1329.88 37.7008 1338.24 44.3793C1346.68 51.0578 1353.62 58.9839 1359.05 68.1577C1364.48 77.3314 1368.04 87.4593 1369.73 98.5412H1328.12ZM1430.24 26.5454V252H1389.39V26.5454H1430.24ZM1442.85 60.782V26.5454H1622.73V60.782H1553.05V252H1512.54V60.782H1442.85ZM1637.42 252H1593.82L1673.19 26.5454H1723.61L1803.1 252H1759.5L1699.28 72.7812H1697.52L1637.42 252ZM1638.85 163.602H1757.74V196.407H1638.85V163.602Z" fill="black"/>
<path d="M2002.61 72.9203C2002.62 71.327 2001.88 69.8247 2000.6 68.8756L1955.1 35.0386C1951.83 32.6029 1947.16 34.9254 1947.11 39.0144L1945.29 190.065C1945.24 193.874 1949.3 196.317 1952.66 194.497L1996.48 170.724C1999.69 168.984 2001.7 165.64 2001.74 161.996L2002.61 72.9203Z" fill="#578EE0"/>
<path d="M2118.93 67.6207C2119.74 67.6207 2120.53 67.4306 2121.22 67.0664L2172.76 39.809C2177.25 37.434 2174.91 30.5221 2169.62 30.5221L1967.82 30.5221C1963.08 30.5221 1961.45 36.3 1965.37 39.2372L2000.21 65.3685C2002.15 66.8244 2004.5 67.6207 2006.85 67.6207L2118.93 67.6207Z" fill="#F47200"/>
<path d="M2005.97 169.236C2005.08 169.236 2004.21 169.475 2003.43 169.928L1958.55 196.303C1954.15 198.887 1955.96 205.611 1961.05 205.611L2031.86 205.611C2032.92 205.611 2033.97 205.269 2034.83 204.636L2058.45 187.287C2066.24 181.561 2062.24 169.236 2052.59 169.236L2005.97 169.236Z" fill="#F47200"/>
<path d="M2150.59 95.0246C2151.73 95.0182 2152.83 95.3983 2153.73 96.1026L2190.86 125.373C2194.58 128.302 2192.55 134.259 2187.83 134.294L2036.33 135.417C2031.73 135.451 2029.51 129.787 2032.91 126.707L2064.51 98.0569C2066.33 96.4103 2068.69 95.4924 2071.15 95.4784L2150.59 95.0246Z" fill="#F47200"/>
<path d="M2121.94 138.618C2123.01 137.756 2124.5 137.266 2126.04 137.263L2187.87 137.139C2192.78 137.13 2195.26 141.628 2191.86 144.379L2056.17 253.905C2053.01 256.457 2047.45 255.242 2046.6 251.814L2036.87 212.253C2036.2 209.522 2037.3 206.695 2039.83 204.665L2121.94 138.618Z" fill="#578EE0"/>
</svg>
