<svg width="2850" height="245" viewBox="0 0 2850 245" fill="none" xmlns="http://www.w3.org/2000/svg">
<path d="M0 54.6772C0 52.6744 1.19508 50.8649 3.03705 50.0786L57.1681 26.9722C60.4667 25.5642 64.1311 27.9843 64.1311 31.5708V234.83C64.1311 238.566 60.183 240.983 56.8561 239.283L5.45012 213.018C2.10509 211.309 0 207.869 0 204.113V54.6772Z" fill="#F47200"/>
<path d="M1925.27 8.13052C1925.27 4.40389 1929.2 1.98698 1932.52 3.66838L2050.79 63.4582C2052.47 64.3091 2053.53 66.0345 2053.53 67.9203V110.412C2053.53 114.192 2049.5 116.605 2046.17 114.817L1992.21 85.8623C1988.88 84.0747 1984.85 86.4877 1984.85 90.268V234.091C1984.85 237.995 1980.58 240.393 1977.24 238.359L1930.06 209.566C1927.08 207.75 1925.27 204.515 1925.27 201.03V8.13052Z" fill="#F47200"/>
<path d="M2197.84 8.05586C2197.84 4.34726 2193.95 1.92934 2190.62 3.57524L2069.69 63.4682C2067.99 64.3118 2066.91 66.0481 2066.91 67.9488V110.492C2066.91 114.254 2070.9 116.668 2074.23 114.918L2129.69 85.7618C2133.02 84.0115 2137.02 86.426 2137.02 90.1875V234.186C2137.02 238.069 2141.25 240.47 2144.59 238.477L2192.97 209.553C2195.99 207.747 2197.84 204.488 2197.84 200.969V8.05586Z" fill="#578EE0"/>
<path d="M150.975 101.308C150.975 103.62 149.39 105.63 147.142 106.17L95.6832 118.52C92.5391 119.275 89.5164 116.891 89.5164 113.658V8.63858C89.5164 5.31369 92.7013 2.91492 95.8969 3.83293L143.736 17.5758C148.022 18.807 150.975 22.7276 150.975 27.187V101.308Z" fill="#578EE0"/>
<path d="M2276.19 238H2232.6L2311.97 12.5454H2362.39L2441.87 238H2398.27L2338.06 58.7812H2336.3L2276.19 238ZM2277.62 149.602H2396.51V182.407H2277.62V149.602ZM2449.86 238V12.5454H2534.41C2551.73 12.5454 2566.26 15.5544 2578 21.5724C2589.82 27.5904 2598.74 36.0303 2604.75 46.892C2610.84 57.6804 2613.89 70.2668 2613.89 84.6513C2613.89 99.1091 2610.81 111.659 2604.64 122.3C2598.55 132.869 2589.56 141.052 2577.67 146.849C2565.78 152.574 2551.18 155.436 2533.86 155.436H2473.64V121.53H2528.35C2538.48 121.53 2546.78 120.135 2553.23 117.347C2559.69 114.484 2564.46 110.338 2567.54 104.907C2570.7 99.4027 2572.28 92.6508 2572.28 84.6513C2572.28 76.6517 2570.7 69.8265 2567.54 64.1754C2564.39 58.451 2559.58 54.121 2553.12 51.1854C2546.67 48.1764 2538.34 46.6719 2528.13 46.6719H2490.71V238H2449.86ZM2566.33 135.841L2622.15 238H2576.57L2521.75 135.841H2566.33ZM2780.82 84.5412C2778.99 78.5966 2776.45 73.2758 2773.23 68.5788C2770.07 63.8085 2766.25 59.7353 2761.78 56.3594C2757.37 52.9834 2752.31 50.4515 2746.58 48.7635C2740.86 47.0021 2734.62 46.1215 2727.87 46.1215C2715.76 46.1215 2704.97 49.1671 2695.51 55.2585C2686.04 61.3499 2678.59 70.3035 2673.16 82.1193C2667.8 93.8617 2665.12 108.173 2665.12 125.053C2665.12 142.079 2667.8 156.5 2673.16 168.316C2678.52 180.132 2685.96 189.122 2695.51 195.287C2705.05 201.378 2716.13 204.424 2728.75 204.424C2740.2 204.424 2750.11 202.222 2758.47 197.819C2766.91 193.415 2773.41 187.177 2777.96 179.104C2782.51 170.958 2784.78 161.417 2784.78 150.482L2794.03 151.913H2732.82V119.989H2824.31V147.07C2824.31 166.371 2820.2 183.067 2811.98 197.158C2803.76 211.249 2792.45 222.111 2778.07 229.744C2763.68 237.303 2747.17 241.082 2728.53 241.082C2707.76 241.082 2689.52 236.422 2673.82 227.102C2658.19 217.708 2645.97 204.387 2637.16 187.141C2628.43 169.821 2624.06 149.271 2624.06 125.493C2624.06 107.292 2626.63 91.0362 2631.77 76.7251C2636.98 62.4141 2644.24 50.268 2653.56 40.2869C2662.88 30.2325 2673.82 22.5999 2686.37 17.3892C2698.92 12.1051 2712.57 9.46306 2727.32 9.46306C2739.8 9.46306 2751.43 11.2978 2762.22 14.9673C2773.01 18.5634 2782.58 23.7008 2790.95 30.3793C2799.39 37.0578 2806.32 44.9839 2811.76 54.1577C2817.19 63.3314 2820.75 73.4593 2822.43 84.5412H2780.82Z" fill="black"/>
<path d="M173.237 237V11.5454H257.783C275.103 11.5454 289.634 14.5544 301.376 20.5724C313.192 26.5904 322.109 35.0303 328.127 45.892C334.219 56.6804 337.264 69.2668 337.264 83.6513C337.264 98.1091 334.182 110.659 328.017 121.3C321.926 131.869 312.935 140.052 301.046 145.849C289.157 151.574 274.552 154.436 257.232 154.436H197.016V120.53H251.728C261.856 120.53 270.149 119.135 276.607 116.347C283.066 113.484 287.836 109.338 290.918 103.907C294.074 98.4027 295.652 91.6508 295.652 83.6513C295.652 75.6517 294.074 68.8265 290.918 63.1754C287.763 57.451 282.955 53.121 276.497 50.1854C270.039 47.1764 261.709 45.6719 251.508 45.6719H214.079V237H173.237ZM289.707 134.841L345.521 237H299.945L245.123 134.841H289.707ZM382.111 237H338.517L417.888 11.5454H468.307L547.789 237H504.195L443.979 57.7812H442.217L382.111 237ZM383.542 148.602H502.434V181.407H383.542V148.602ZM518.631 45.782V11.5454H698.51V45.782H628.826V237H588.315V45.782H518.631ZM752.328 11.5454V237H711.487V11.5454H752.328ZM759.443 11.5454H805.569L860.722 111.283H862.923L918.076 11.5454H964.202L882.188 152.895V237H841.457V152.895L759.443 11.5454ZM1160.17 124.273C1160.17 148.565 1155.62 169.371 1146.52 186.691C1137.49 203.938 1125.16 217.148 1109.53 226.322C1093.97 235.496 1076.32 240.082 1056.58 240.082C1036.84 240.082 1019.15 235.496 1003.52 226.322C987.958 217.075 975.628 203.828 966.528 186.581C957.501 169.261 952.987 148.491 952.987 124.273C952.987 99.9806 957.501 79.2112 966.528 61.9645C975.628 44.6444 987.958 31.3975 1003.52 22.2237C1019.15 13.0499 1036.84 8.46306 1056.58 8.46306C1076.32 8.46306 1093.97 13.0499 1109.53 22.2237C1125.16 31.3975 1137.49 44.6444 1146.52 61.9645C1155.62 79.2112 1160.17 99.9806 1160.17 124.273ZM1119.11 124.273C1119.11 107.173 1116.43 92.7517 1111.07 81.0092C1105.79 69.1934 1098.45 60.2765 1089.05 54.2585C1079.66 48.1671 1068.83 45.1215 1056.58 45.1215C1044.32 45.1215 1033.5 48.1671 1024.1 54.2585C1014.71 60.2765 1007.33 69.1934 1001.98 81.0092C996.691 92.7517 994.049 107.173 994.049 124.273C994.049 141.373 996.691 155.83 1001.98 167.646C1007.33 179.389 1014.71 188.306 1024.1 194.397C1033.5 200.415 1044.32 203.424 1056.58 203.424C1068.83 203.424 1079.66 200.415 1089.05 194.397C1098.45 188.306 1105.79 179.389 1111.07 167.646C1116.43 155.83 1119.11 141.373 1119.11 124.273ZM1328.12 83.5412C1326.28 77.5966 1323.75 72.2758 1320.52 67.5788C1317.37 62.8085 1313.55 58.7353 1309.07 55.3594C1304.67 51.9834 1299.61 49.4515 1293.88 47.7635C1288.16 46.0021 1281.92 45.1215 1275.17 45.1215C1263.06 45.1215 1252.27 48.1671 1242.8 54.2585C1233.33 60.3499 1225.88 69.3035 1220.45 81.1193C1215.1 92.8617 1212.42 107.173 1212.42 124.053C1212.42 141.079 1215.1 155.5 1220.45 167.316C1225.81 179.132 1233.26 188.122 1242.8 194.287C1252.34 200.378 1263.42 203.424 1276.05 203.424C1287.5 203.424 1297.4 201.222 1305.77 196.819C1314.21 192.415 1320.7 186.177 1325.25 178.104C1329.81 169.958 1332.08 160.417 1332.08 149.482L1341.33 150.913H1280.12V118.989H1371.6V146.07C1371.6 165.371 1367.49 182.067 1359.27 196.158C1351.05 210.249 1339.75 221.111 1325.36 228.744C1310.98 236.303 1294.47 240.082 1275.83 240.082C1255.06 240.082 1236.82 235.422 1221.11 226.102C1205.48 216.708 1193.26 203.387 1184.46 186.141C1175.72 168.821 1171.36 148.271 1171.36 124.493C1171.36 106.292 1173.92 90.0362 1179.06 75.7251C1184.27 61.4141 1191.54 49.268 1200.86 39.2869C1210.18 29.2325 1221.11 21.5999 1233.66 16.3892C1246.21 11.1051 1259.86 8.46306 1274.62 8.46306C1287.09 8.46306 1298.72 10.2978 1309.51 13.9673C1320.3 17.5634 1329.88 22.7008 1338.24 29.3793C1346.68 36.0578 1353.62 43.9839 1359.05 53.1577C1364.48 62.3314 1368.04 72.4593 1369.73 83.5412H1328.12ZM1430.24 11.5454V237H1389.39V11.5454H1430.24ZM1442.85 45.782V11.5454H1622.73V45.782H1553.05V237H1512.54V45.782H1442.85ZM1637.42 237H1593.82L1673.19 11.5454H1723.61L1803.1 237H1759.5L1699.28 57.7812H1697.52L1637.42 237ZM1638.85 148.602H1757.74V181.407H1638.85V148.602Z" fill="black"/>
</svg>
