<svg width="2957" height="256" viewBox="0 0 2957 256" fill="none" xmlns="http://www.w3.org/2000/svg">
<path d="M0 53.511C0 51.5933 1.09679 49.8446 2.82318 49.0097L49.4297 26.4707C52.7499 24.8651 56.6065 27.2839 56.6065 30.972V233.328C56.6065 237.18 52.4349 239.585 49.1016 237.656L4.99022 212.122C1.90172 210.334 0 207.036 0 203.467V53.511Z" fill="#F47200"/>
<path d="M133.261 100.428C133.261 102.684 131.75 104.661 129.573 105.253L85.325 117.284C82.1451 118.148 79.0131 115.754 79.0131 112.459V7.88542C79.0131 4.48757 82.3294 2.07933 85.5605 3.13089L126.356 16.408C130.474 17.7481 133.261 21.5866 133.261 25.917V100.428Z" fill="#578EE0"/>
<path d="M2350.69 124.273C2350.69 148.565 2346.14 169.371 2337.04 186.691C2328.02 203.938 2315.69 217.148 2300.05 226.322C2284.5 235.496 2266.84 240.082 2247.1 240.082C2227.36 240.082 2209.67 235.496 2194.04 226.322C2178.48 217.075 2166.15 203.828 2157.05 186.581C2148.03 169.261 2143.51 148.491 2143.51 124.273C2143.51 99.9806 2148.03 79.2112 2157.05 61.9645C2166.15 44.6444 2178.48 31.3975 2194.04 22.2237C2209.67 13.0499 2227.36 8.46306 2247.1 8.46306C2266.84 8.46306 2284.5 13.0499 2300.05 22.2237C2315.69 31.3975 2328.02 44.6444 2337.04 61.9645C2346.14 79.2112 2350.69 99.9806 2350.69 124.273ZM2309.63 124.273C2309.63 107.173 2306.95 92.7517 2301.6 81.0092C2296.31 69.1934 2288.97 60.2765 2279.58 54.2585C2270.18 48.1671 2259.36 45.1215 2247.1 45.1215C2234.85 45.1215 2224.02 48.1671 2214.63 54.2585C2205.23 60.2765 2197.86 69.1934 2192.5 81.0092C2187.22 92.7517 2184.57 107.173 2184.57 124.273C2184.57 141.373 2187.22 155.83 2192.5 167.646C2197.86 179.389 2205.23 188.306 2214.63 194.397C2224.02 200.415 2234.85 203.424 2247.1 203.424C2259.36 203.424 2270.18 200.415 2279.58 194.397C2288.97 188.306 2296.31 179.389 2301.6 167.646C2306.95 155.83 2309.63 141.373 2309.63 124.273ZM2518.64 83.5412C2516.81 77.5966 2514.28 72.2758 2511.05 67.5788C2507.89 62.8085 2504.07 58.7353 2499.6 55.3594C2495.19 51.9834 2490.13 49.4515 2484.41 47.7635C2478.68 46.0021 2472.44 45.1215 2465.69 45.1215C2453.58 45.1215 2442.79 48.1671 2433.33 54.2585C2423.86 60.3499 2416.41 69.3035 2410.98 81.1193C2405.62 92.8617 2402.94 107.173 2402.94 124.053C2402.94 141.079 2405.62 155.5 2410.98 167.316C2416.34 179.132 2423.79 188.122 2433.33 194.287C2442.87 200.378 2453.95 203.424 2466.57 203.424C2478.02 203.424 2487.93 201.222 2496.3 196.819C2504.74 192.415 2511.23 186.177 2515.78 178.104C2520.33 169.958 2522.61 160.417 2522.61 149.482L2531.85 150.913H2470.65V118.989H2562.13V146.07C2562.13 165.371 2558.02 182.067 2549.8 196.158C2541.58 210.249 2530.27 221.111 2515.89 228.744C2501.51 236.303 2484.99 240.082 2466.35 240.082C2445.58 240.082 2427.35 235.422 2411.64 226.102C2396.01 216.708 2383.79 203.387 2374.98 186.141C2366.25 168.821 2361.88 148.271 2361.88 124.493C2361.88 106.292 2364.45 90.0362 2369.59 75.7251C2374.8 61.4141 2382.06 49.268 2391.38 39.2869C2400.7 29.2325 2411.64 21.5999 2424.19 16.3892C2436.74 11.1051 2450.39 8.46306 2465.14 8.46306C2477.62 8.46306 2489.25 10.2978 2500.04 13.9673C2510.83 17.5634 2520.4 22.7008 2528.77 29.3793C2537.21 36.0578 2544.15 43.9839 2549.58 53.1577C2555.01 62.3314 2558.57 72.4593 2560.25 83.5412H2518.64ZM2556.03 11.5454H2602.16L2657.31 111.283H2659.51L2714.66 11.5454H2760.79L2678.78 152.895V237H2638.04V152.895L2556.03 11.5454ZM2773.96 237H2730.37L2809.74 11.5454H2860.16L2939.64 237H2896.04L2835.83 57.7812H2834.07L2773.96 237ZM2775.39 148.602H2894.28V181.407H2775.39V148.602Z" fill="black"/>
<path d="M2001.99 133.992C2001.99 132.713 2002.48 131.482 2003.36 130.554L2118.37 9.11327C2121.48 5.83109 2127 8.0309 2127 12.5513V60.844C2127 62.0971 2126.53 63.3045 2125.68 64.2271L2047.72 149.065C2046.87 149.988 2046.4 151.195 2046.4 152.448V211.009C2046.4 212.366 2045.85 213.664 2044.88 214.607L2018.94 239.643C2012.59 245.772 2001.99 241.273 2001.99 232.448V133.992Z" fill="#F47200"/>
<path d="M1992.56 133.992C1992.56 132.713 1992.07 131.482 1991.19 130.554L1876.18 9.11327C1873.08 5.83109 1867.55 8.0309 1867.55 12.5513V60.844C1867.55 62.0971 1868.02 63.3045 1868.87 64.2271L1946.83 149.065C1947.68 149.988 1948.15 151.195 1948.15 152.448V211.009C1948.15 212.366 1948.7 213.664 1949.68 214.607L1975.61 239.643C1981.96 245.772 1992.56 241.273 1992.56 232.448V133.992Z" fill="#578EE0"/>
<path d="M155.237 236V10.5454H239.783C257.103 10.5454 271.634 13.5544 283.376 19.5724C295.192 25.5904 304.109 34.0303 310.127 44.892C316.219 55.6804 319.264 68.2668 319.264 82.6513C319.264 97.1091 316.182 109.659 310.017 120.3C303.926 130.869 294.935 139.052 283.046 144.849C271.157 150.574 256.552 153.436 239.232 153.436H179.016V119.53H233.728C243.856 119.53 252.149 118.135 258.607 115.347C265.066 112.484 269.836 108.338 272.918 102.907C276.074 97.4027 277.652 90.6508 277.652 82.6513C277.652 74.6517 276.074 67.8265 272.918 62.1754C269.763 56.451 264.955 52.121 258.497 49.1854C252.039 46.1764 243.709 44.6719 233.508 44.6719H196.079V236H155.237ZM271.707 133.841L327.521 236H281.945L227.123 133.841H271.707ZM364.111 236H320.517L399.888 10.5454H450.307L529.789 236H486.195L425.979 56.7812H424.217L364.111 236ZM365.542 147.602H484.434V180.407H365.542V147.602ZM500.631 44.782V10.5454H680.51V44.782H610.826V236H570.315V44.782H500.631ZM734.328 10.5454V236H693.487V10.5454H734.328ZM741.443 10.5454H787.569L842.722 110.283H844.923L900.076 10.5454H946.202L864.188 151.895V236H823.457V151.895L741.443 10.5454ZM1142.17 123.273C1142.17 147.565 1137.62 168.371 1128.52 185.691C1119.49 202.938 1107.16 216.148 1091.53 225.322C1075.97 234.496 1058.32 239.082 1038.58 239.082C1018.84 239.082 1001.15 234.496 985.517 225.322C969.958 216.075 957.628 202.828 948.528 185.581C939.501 168.261 934.987 147.491 934.987 123.273C934.987 98.9806 939.501 78.2112 948.528 60.9645C957.628 43.6444 969.958 30.3975 985.517 21.2237C1001.15 12.0499 1018.84 7.46306 1038.58 7.46306C1058.32 7.46306 1075.97 12.0499 1091.53 21.2237C1107.16 30.3975 1119.49 43.6444 1128.52 60.9645C1137.62 78.2112 1142.17 98.9806 1142.17 123.273ZM1101.11 123.273C1101.11 106.173 1098.43 91.7517 1093.07 80.0092C1087.79 68.1934 1080.45 59.2765 1071.05 53.2585C1061.66 47.1671 1050.83 44.1215 1038.58 44.1215C1026.32 44.1215 1015.5 47.1671 1006.1 53.2585C996.709 59.2765 989.333 68.1934 983.975 80.0092C978.691 91.7517 976.049 106.173 976.049 123.273C976.049 140.373 978.691 154.83 983.975 166.646C989.333 178.389 996.709 187.306 1006.1 193.397C1015.5 199.415 1026.32 202.424 1038.58 202.424C1050.83 202.424 1061.66 199.415 1071.05 193.397C1080.45 187.306 1087.79 178.389 1093.07 166.646C1098.43 154.83 1101.11 140.373 1101.11 123.273ZM1310.12 82.5412C1308.28 76.5966 1305.75 71.2758 1302.52 66.5788C1299.37 61.8085 1295.55 57.7353 1291.07 54.3594C1286.67 50.9834 1281.61 48.4515 1275.88 46.7635C1270.16 45.0021 1263.92 44.1215 1257.17 44.1215C1245.06 44.1215 1234.27 47.1671 1224.8 53.2585C1215.33 59.3499 1207.88 68.3035 1202.45 80.1193C1197.1 91.8617 1194.42 106.173 1194.42 123.053C1194.42 140.079 1197.1 154.5 1202.45 166.316C1207.81 178.132 1215.26 187.122 1224.8 193.287C1234.34 199.378 1245.42 202.424 1258.05 202.424C1269.5 202.424 1279.4 200.222 1287.77 195.819C1296.21 191.415 1302.7 185.177 1307.25 177.104C1311.81 168.958 1314.08 159.417 1314.08 148.482L1323.33 149.913H1262.12V117.989H1353.6V145.07C1353.6 164.371 1349.49 181.067 1341.27 195.158C1333.05 209.249 1321.75 220.111 1307.36 227.744C1292.98 235.303 1276.47 239.082 1257.83 239.082C1237.06 239.082 1218.82 234.422 1203.11 225.102C1187.48 215.708 1175.26 202.387 1166.46 185.141C1157.72 167.821 1153.36 147.271 1153.36 123.493C1153.36 105.292 1155.92 89.0362 1161.06 74.7251C1166.27 60.4141 1173.54 48.268 1182.86 38.2869C1192.18 28.2325 1203.11 20.5999 1215.66 15.3892C1228.21 10.1051 1241.86 7.46306 1256.62 7.46306C1269.09 7.46306 1280.72 9.29781 1291.51 12.9673C1302.3 16.5634 1311.88 21.7008 1320.24 28.3793C1328.68 35.0578 1335.62 42.9839 1341.05 52.1577C1346.48 61.3314 1350.04 71.4593 1351.73 82.5412H1310.12ZM1412.24 10.5454V236H1371.39V10.5454H1412.24ZM1424.85 44.782V10.5454H1604.73V44.782H1535.05V236H1494.54V44.782H1424.85ZM1619.42 236H1575.82L1655.19 10.5454H1705.61L1785.1 236H1741.5L1681.28 56.7812H1679.52L1619.42 236ZM1620.85 147.602H1739.74V180.407H1620.85V147.602Z" fill="black"/>
</svg>
