<svg width="2652" height="242" viewBox="0 0 2652 242" fill="none" xmlns="http://www.w3.org/2000/svg">
<path d="M1954.91 186C1953.59 186 1952.32 186.522 1951.39 187.452L1912.1 226.452C1908.94 229.596 1911.16 235 1915.63 235H2048.64C2053.06 235 2055.31 229.679 2052.22 226.511L2015.69 189.021C2013.81 187.089 2011.23 186 2008.53 186H1954.91Z" fill="#578EE0"/>
<path d="M0 52.2794C0 50.4837 0.96303 48.8258 2.52296 47.9361L40.523 26.2643C43.8562 24.3633 48 26.7703 48 30.6076V231.533C48 235.551 43.4998 237.928 40.181 235.662L4.36196 211.211C1.63262 209.347 0 206.256 0 202.952V52.2794Z" fill="#F47200"/>
<path d="M113 99.6025C113 101.776 111.596 103.7 109.527 104.364L73.5267 115.907C70.2998 116.942 67 114.535 67 111.146V7.27469C67 3.76728 70.5171 1.34991 73.7916 2.6067L106.583 15.1925C110.449 16.6761 113 20.3882 113 24.5285V99.6025Z" fill="#578EE0"/>
<path d="M2097.24 235V9.54545H2243.87V43.782H2138.08V104.989H2236.27V139.226H2138.08V200.763H2244.75V235H2097.24ZM2253.93 43.782V9.54545H2433.81V43.782H2364.13V235H2323.61V43.782H2253.93ZM2588.91 9.54545H2629.75V156.839C2629.75 172.985 2625.93 187.186 2618.3 199.442C2610.74 211.699 2600.1 221.276 2586.37 228.175C2572.65 235 2556.61 238.413 2538.27 238.413C2519.85 238.413 2503.77 235 2490.05 228.175C2476.33 221.276 2465.68 211.699 2458.13 199.442C2450.57 187.186 2446.79 172.985 2446.79 156.839V9.54545H2487.63V153.427C2487.63 162.821 2489.68 171.187 2493.79 178.526C2497.98 185.865 2503.85 191.626 2511.41 195.81C2518.97 199.92 2527.92 201.974 2538.27 201.974C2548.62 201.974 2557.57 199.92 2565.13 195.81C2572.76 191.626 2578.63 185.865 2582.74 178.526C2586.85 171.187 2588.91 162.821 2588.91 153.427V9.54545Z" fill="black"/>
<path d="M135.237 235V9.54545H219.783C237.103 9.54545 251.634 12.5544 263.376 18.5724C275.192 24.5904 284.109 33.0303 290.127 43.892C296.219 54.6804 299.264 67.2668 299.264 81.6513C299.264 96.1091 296.182 108.659 290.017 119.3C283.926 129.869 274.935 138.052 263.046 143.849C251.157 149.574 236.552 152.436 219.232 152.436H159.016V118.53H213.728C223.856 118.53 232.149 117.135 238.607 114.347C245.066 111.484 249.836 107.338 252.918 101.907C256.074 96.4027 257.652 89.6508 257.652 81.6513C257.652 73.6517 256.074 66.8265 252.918 61.1754C249.763 55.451 244.955 51.121 238.497 48.1854C232.039 45.1764 223.709 43.6719 213.508 43.6719H176.079V235H135.237ZM251.707 132.841L307.521 235H261.945L207.123 132.841H251.707ZM344.111 235H300.517L379.888 9.54545H430.307L509.789 235H466.195L405.979 55.7812H404.217L344.111 235ZM345.542 146.602H464.434V179.407H345.542V146.602ZM480.631 43.782V9.54545H660.51V43.782H590.826V235H550.315V43.782H480.631ZM714.328 9.54545V235H673.487V9.54545H714.328ZM721.443 9.54545H767.569L822.722 109.283H824.923L880.076 9.54545H926.202L844.188 150.895V235H803.457V150.895L721.443 9.54545ZM1122.17 122.273C1122.17 146.565 1117.62 167.371 1108.52 184.691C1099.49 201.938 1087.16 215.148 1071.53 224.322C1055.97 233.496 1038.32 238.082 1018.58 238.082C998.836 238.082 981.149 233.496 965.517 224.322C949.958 215.075 937.628 201.828 928.528 184.581C919.501 167.261 914.987 146.491 914.987 122.273C914.987 97.9806 919.501 77.2112 928.528 59.9645C937.628 42.6444 949.958 29.3975 965.517 20.2237C981.149 11.0499 998.836 6.46306 1018.58 6.46306C1038.32 6.46306 1055.97 11.0499 1071.53 20.2237C1087.16 29.3975 1099.49 42.6444 1108.52 59.9645C1117.62 77.2112 1122.17 97.9806 1122.17 122.273ZM1081.11 122.273C1081.11 105.173 1078.43 90.7517 1073.07 79.0092C1067.79 67.1934 1060.45 58.2765 1051.05 52.2585C1041.66 46.1671 1030.83 43.1215 1018.58 43.1215C1006.32 43.1215 995.496 46.1671 986.102 52.2585C976.709 58.2765 969.333 67.1934 963.975 79.0092C958.691 90.7517 956.049 105.173 956.049 122.273C956.049 139.373 958.691 153.83 963.975 165.646C969.333 177.389 976.709 186.306 986.102 192.397C995.496 198.415 1006.32 201.424 1018.58 201.424C1030.83 201.424 1041.66 198.415 1051.05 192.397C1060.45 186.306 1067.79 177.389 1073.07 165.646C1078.43 153.83 1081.11 139.373 1081.11 122.273ZM1290.12 81.5412C1288.28 75.5966 1285.75 70.2758 1282.52 65.5788C1279.37 60.8085 1275.55 56.7353 1271.07 53.3594C1266.67 49.9834 1261.61 47.4515 1255.88 45.7635C1250.16 44.0021 1243.92 43.1215 1237.17 43.1215C1225.06 43.1215 1214.27 46.1671 1204.8 52.2585C1195.33 58.3499 1187.88 67.3035 1182.45 79.1193C1177.1 90.8617 1174.42 105.173 1174.42 122.053C1174.42 139.079 1177.1 153.5 1182.45 165.316C1187.81 177.132 1195.26 186.122 1204.8 192.287C1214.34 198.378 1225.42 201.424 1238.05 201.424C1249.5 201.424 1259.4 199.222 1267.77 194.819C1276.21 190.415 1282.7 184.177 1287.25 176.104C1291.81 167.958 1294.08 158.417 1294.08 147.482L1303.33 148.913H1242.12V116.989H1333.6V144.07C1333.6 163.371 1329.49 180.067 1321.27 194.158C1313.05 208.249 1301.75 219.111 1287.36 226.744C1272.98 234.303 1256.47 238.082 1237.83 238.082C1217.06 238.082 1198.82 233.422 1183.11 224.102C1167.48 214.708 1155.26 201.387 1146.46 184.141C1137.72 166.821 1133.36 146.271 1133.36 122.493C1133.36 104.292 1135.92 88.0362 1141.06 73.7251C1146.27 59.4141 1153.54 47.268 1162.86 37.2869C1172.18 27.2325 1183.11 19.5999 1195.66 14.3892C1208.21 9.10511 1221.86 6.46306 1236.62 6.46306C1249.09 6.46306 1260.72 8.29781 1271.51 11.9673C1282.3 15.5634 1291.88 20.7008 1300.24 27.3793C1308.68 34.0578 1315.62 41.9839 1321.05 51.1577C1326.48 60.3314 1330.04 70.4593 1331.73 81.5412H1290.12ZM1392.24 9.54545V235H1351.39V9.54545H1392.24ZM1404.85 43.782V9.54545H1584.73V43.782H1515.05V235H1474.54V43.782H1404.85ZM1599.42 235H1555.82L1635.19 9.54545H1685.61L1765.1 235H1721.5L1661.28 55.7812H1659.52L1599.42 235ZM1600.85 146.602H1719.74V179.407H1600.85V146.602Z" fill="black"/>
<path d="M2017.49 110.595C2017.49 106.369 2022.41 104.049 2025.67 106.735L2066.67 140.5C2067.82 141.45 2068.49 142.866 2068.49 144.36V223.746C2068.49 228.226 2063.05 230.445 2059.92 227.244L2020.35 186.824C2018.52 184.955 2017.49 182.444 2017.49 179.829V110.595Z" fill="#F47200"/>
<path d="M1967.49 140C1964.73 140 1962.49 137.761 1962.49 135V104C1962.49 101.239 1964.73 99 1967.49 99H2006.49C2009.25 99 2011.49 101.239 2011.49 104V130C2011.49 135.523 2007.01 140 2001.49 140H1967.49Z" fill="#578EE0"/>
<path d="M1955.49 127.821C1955.49 132.143 1950.38 134.429 1947.16 131.548L1905.16 93.9907C1904.1 93.0422 1903.49 91.6866 1903.49 90.2636V15.086C1903.49 10.6294 1908.88 8.39952 1912.03 11.5536L1952.57 52.1633C1954.44 54.0382 1955.49 56.5791 1955.49 59.2282V127.821Z" fill="#F47200"/>
<path d="M2017.07 53C2018.39 53 2019.66 52.4782 2020.6 51.5484L2059.88 12.5484C2063.05 9.40386 2060.82 4 2056.36 4H1923.34C1918.92 4 1916.68 9.32132 1919.76 12.4894L1956.29 49.9788C1958.18 51.9105 1960.76 53 1963.46 53H2017.07Z" fill="#578EE0"/>
</svg>
